<?xml version="1.0" encoding="UTF-8" standalone="no"?>
<svg width="300" height="80" viewBox="0 0 300 80" fill="none" xmlns="http://www.w3.org/2000/svg">
  <!-- Gradient definitions -->
  <defs>
    <linearGradient id="nablaGradient" x1="0%" y1="0%" x2="100%" y2="100%">
      <stop offset="0%" stop-color="#C7FF00" />
<!--      <stop offset="50%" stop-color="#56CCF2" />-->
      <stop offset="50%" stop-color="#7affF2" />
      <stop offset="100%" stop-color="#2ECC71" />
    </linearGradient>
    <linearGradient id="torchGradient" x1="0%" y1="0%" x2="100%" y2="0%">
      <stop offset="0%" stop-color="#C7FF00" />
      <stop offset="100%" stop-color="#C7FF4C" />

<!--      <stop offset="0%" stop-color="#ff7e5f" />-->
<!--      <stop offset="100%" stop-color="#feb47b" />-->
    </linearGradient>
    <linearGradient id="ebmGradient" x1="0%" y1="0%" x2="100%" y2="0%">
      <stop offset="0%" stop-color="#00c6ff" />
      <stop offset="100%" stop-color="#0072ff" />
    </linearGradient>
    <filter id="textGlow" x="-50%" y="-50%" width="200%" height="200%">
      <feGaussianBlur stdDeviation="3" result="blur" />
      <feComposite in="SourceGraphic" in2="blur" operator="over" />
    </filter>
    <filter id="outerGlow" x="-100%" y="-100%" width="300%" height="300%">
      <feGaussianBlur stdDeviation="6" result="blur" />
      <feComposite in="SourceGraphic" in2="blur" operator="over" />
    </filter>
  </defs>

  <!-- Penrose impossible nabla symbol -->
  <g transform="translate(5, 18) scale(0.55)">
    <polygon points="27.9,26.9 18.8,26.9 54.6,89.0 95.0,19.0 90.4,11.1 54.6,73.1"
             fill="#4DE8A0" stroke="#0a2818" stroke-width="1" stroke-linejoin="bevel"/>
    <polygon points="72.1,26.9 76.7,19.0 5.0,19.0 45.4,89.0 54.6,89.0 18.8,26.9"
             fill="#C7FF00" stroke="#0a2818" stroke-width="1" stroke-linejoin="bevel"/>
    <polygon points="50.0,65.1 54.6,73.1 90.4,11.0 9.6,11.1 5.0,19.0 76.7,19.0"
             fill="#1A7848" stroke="#0a2818" stroke-width="1" stroke-linejoin="bevel"/>
  </g>

  <!-- TorchEBM text -->
  <g transform="translate(80, 50)">
    <!-- Torch text -->
    <text x="0" y="15" font-family="Raleway, sans-serif" font-size="40" font-weight="600" fill="url(#torchGradient)" letter-spacing="0.5">Torch</text>
    
    <!-- EBM text -->
    <text x="115" y="15" font-family="Raleway, sans-serif" font-size="40" font-weight="700" fill="url(#ebmGradient)" letter-spacing="0.5">EBM</text>
  </g>
</svg> 